<svg width="24" height="16" viewBox="0 0 24 16" fill="none" xmlns="http://www.w3.org/2000/svg">
<path fill-rule="evenodd" clip-rule="evenodd" d="M21.8468 1.12809C21.9184 1.30106 21.9553 1.48643 21.9553 1.67365H21.9649V13.316H2.04492V1.67365C2.04492 1.29555 2.19512 0.932947 2.46247 0.665595C2.72982 0.398243 3.09243 0.248047 3.47052 0.248047H20.5297C20.7169 0.248047 20.9023 0.284921 21.0753 0.356564C21.2482 0.428207 21.4054 0.533216 21.5378 0.665595C21.6702 0.797974 21.7752 0.955132 21.8468 1.12809ZM3.70812 11.6528H20.2921V1.91125H3.70812V11.6528ZM14.1384 14.0313C14.1384 13.9479 14.1187 13.8656 14.0808 13.7913H24C24 14.8737 23.0232 15.7521 21.8232 15.7521H2.1768C0.9744 15.7521 0 14.8737 0 13.7913H9.9192C9.88131 13.8656 9.86157 13.9479 9.8616 14.0313C9.8616 14.1733 9.91799 14.3094 10.0184 14.4098C10.1187 14.5101 10.2549 14.5665 10.3968 14.5665H13.6032C13.7451 14.5665 13.8813 14.5101 13.9816 14.4098C14.082 14.3094 14.1384 14.1733 14.1384 14.0313Z" fill="#F7F8F9"/>
</svg>
