<svg width="16" height="16" viewBox="0 0 16 16" fill="none" xmlns="http://www.w3.org/2000/svg">
<path fill-rule="evenodd" clip-rule="evenodd" d="M4.3325 12H10.9995V2H4.3325V12ZM7.6665 15C7.1145 15 6.6665 14.553 6.6665 14C6.6665 13.447 7.1145 13 7.6665 13C8.2185 13 8.6665 13.447 8.6665 14C8.6665 14.553 8.2185 15 7.6665 15ZM10.9995 0H4.3335C3.4125 0 2.6665 0.896 2.6665 2V14C2.6665 15.104 3.4125 16 4.3335 16H10.9995C11.9205 16 12.6665 15.104 12.6665 14V2C12.6665 0.896 11.9205 0 10.9995 0Z" fill="black"/>
</svg>
